<svg xmlns="http://www.w3.org/2000/svg" viewBox="0 0 560 560" width="560" height="560">
  <rect x="0" y="0" width="560" height="560" rx="96" fill="#D85A30"/>
  <rect x="20" y="20" width="520" height="520" rx="80" fill="none" stroke="#F5C4B3" stroke-width="2" opacity="0.5"/>
  <g transform="translate(280, 280)">
    <rect x="-90" y="-30" width="180" height="160" rx="16" fill="#FFFFFF"/>
    <rect x="-70" y="110" width="140" height="4" rx="2" fill="#F5C4B3" opacity="0.6"/>
    <path d="M-50,-30 C-50,-100 0,-110 10,-80" fill="none" stroke="#FFFFFF" stroke-width="14" stroke-linecap="round"/>
    <path d="M50,-30 C50,-100 0,-110 -10,-80" fill="none" stroke="#FFFFFF" stroke-width="14" stroke-linecap="round"/>
    <path d="M-44,-30 C-44,-88 0,-94 8,-72" fill="none" stroke="#D85A30" stroke-width="6" stroke-linecap="round"/>
    <path d="M44,-30 C44,-88 0,-94 -8,-72" fill="none" stroke="#D85A30" stroke-width="6" stroke-linecap="round"/>
    <g transform="translate(0, 35)">
      <path d="M0,-55 L30,-40 L30,5 Q30,35 0,50 Q-30,35 -30,5 L-30,-40 Z" fill="#1D9E75"/>
      <path d="M-14,5 L-5,16 L16,-12" fill="none" stroke="#FFFFFF" stroke-width="6" stroke-linecap="round" stroke-linejoin="round"/>
    </g>
    <g transform="translate(-55, 20)">
      <rect x="0" y="0" width="40" height="24" rx="6" fill="#FAECE7" stroke="#F0997B" stroke-width="1"/>
      <text x="20" y="16" text-anchor="middle" font-family="sans-serif" font-size="11" font-weight="500" fill="#993C1D">1499</text>
    </g>
    <g transform="translate(15, 20)">
      <rect x="0" y="0" width="40" height="24" rx="6" fill="#E6F1FB" stroke="#85B7EB" stroke-width="1"/>
      <text x="20" y="16" text-anchor="middle" font-family="sans-serif" font-size="11" font-weight="500" fill="#185FA5">1299</text>
      <line x1="2" y1="2" x2="38" y2="22" stroke="#E24B4A" stroke-width="2" opacity="0.5"/>
    </g>
    <path d="M-5,12 L5,12" fill="none" stroke="#1D9E75" stroke-width="2" stroke-linecap="round"/>
  </g>
</svg>